<?xml version="1.0" standalone="no"?>
<!DOCTYPE svg PUBLIC "-//W3C//DTD SVG 20010904//EN"
 "http://www.w3.org/TR/2001/REC-SVG-20010904/DTD/svg10.dtd">
<svg version="1.0" xmlns="http://www.w3.org/2000/svg"
 width="323.000000pt" height="304.000000pt" viewBox="0 0 323.000000 304.000000"
 preserveAspectRatio="xMidYMid meet">

<g transform="translate(0.000000,304.000000) scale(0.100000,-0.100000)"
fill="#000000" stroke="none">
<path d="M1405 3016 c-65 -16 -94 -32 -190 -106 -108 -82 -308 -180 -465 -225
-181 -53 -208 -74 -225 -175 -12 -71 -46 -126 -157 -254 -302 -347 -362 -454
-362 -641 0 -97 7 -126 64 -255 46 -106 56 -147 70 -290 19 -192 41 -262 114
-364 57 -81 118 -132 275 -235 259 -169 380 -212 701 -251 556 -67 1099 45
1495 308 255 169 365 340 406 631 17 118 7 298 -21 386 -40 126 -78 191 -236
410 -56 77 -148 217 -204 310 -132 221 -188 296 -329 436 -129 128 -166 151
-284 173 -42 8 -117 31 -165 51 -238 99 -361 122 -487 91z m-298 -738 c181
-67 209 -341 40 -383 -37 -10 -112 27 -131 64 -24 46 -20 73 24 139 59 87 52
122 -24 122 -121 -1 -244 -126 -277 -281 -17 -79 -7 -234 18 -291 50 -110 161
-187 285 -196 97 -7 151 4 209 44 57 38 71 37 48 -4 -39 -71 -180 -123 -335
-124 -284 -2 -474 175 -474 441 0 132 36 223 127 321 66 72 121 112 193 140
107 42 198 45 297 8z m573 -288 c25 -93 22 -98 -36 -54 -38 30 -41 40 -17 66
22 24 45 19 53 -12z m98 -155 c12 -15 22 -39 22 -54 0 -36 -46 -80 -92 -87
-43 -7 -61 12 -24 26 30 11 46 38 46 79 0 35 -21 41 -57 16 -25 -18 -47 -76
-39 -103 11 -33 53 -63 94 -69 33 -4 44 -1 72 24 27 24 37 46 55 114 12 48 26
84 33 83 7 -1 28 -2 47 -2 25 -2 35 -7 35 -18 0 -12 5 -14 18 -8 9 4 31 8 47
9 17 0 44 9 62 18 46 24 89 22 118 -8 30 -29 30 -41 8 -156 -14 -72 -14 -90
-4 -103 20 -24 37 -20 77 17 33 30 36 35 24 57 -20 37 -7 108 27 141 39 40 80
50 129 33 74 -25 95 -84 49 -130 -22 -22 -33 -25 -75 -22 -53 3 -60 -4 -33
-34 20 -22 71 -23 101 -2 30 21 36 14 15 -15 -25 -36 -73 -52 -119 -40 -22 6
-45 16 -53 22 -10 9 -18 5 -34 -18 -70 -99 -133 -121 -181 -64 -31 36 -31 48
-10 156 19 95 15 113 -23 113 -28 0 -28 -1 -28 -62 0 -98 -9 -118 -50 -118
l-35 0 3 78 c2 71 0 77 -18 77 -23 0 -35 -46 -38 -145 l-2 -65 -44 -3 -43 -3
7 73 7 73 -38 -44 c-59 -69 -126 -87 -201 -56 l-36 15 -33 -39 c-66 -77 -164
-70 -192 14 -8 22 -12 63 -10 91 l4 51 -44 -1 c-39 -1 -45 -4 -57 -34 -17 -40
-41 -44 -29 -4 9 31 8 63 -1 108 -5 22 -2 34 10 44 15 12 19 12 32 -5 7 -11
11 -30 8 -42 -3 -13 -1 -23 5 -23 19 0 64 27 89 54 18 19 35 26 60 26 58 0 61
-6 45 -85 -26 -138 -13 -216 34 -201 12 4 31 21 43 37 18 26 20 35 10 55 -23
51 -6 129 37 168 47 41 129 37 170 -9z m614 -322 c35 -31 12 -127 -54 -225
-37 -56 -48 -102 -32 -142 8 -21 39 -20 74 1 24 14 28 22 23 44 -7 35 12 92
44 129 48 57 143 26 143 -46 0 -34 -1 -35 -32 -32 -32 3 -33 5 -30 41 5 49
-23 51 -44 2 -19 -47 -18 -89 5 -109 24 -22 41 -13 41 20 0 20 5 24 31 24 30
0 31 -1 26 -33 -7 -47 4 -61 42 -54 39 8 40 -8 1 -28 -39 -20 -63 -19 -84 4
-13 14 -26 18 -55 14 -27 -4 -42 0 -54 12 -16 15 -19 14 -51 -10 -19 -14 -50
-29 -69 -32 -29 -4 -37 -1 -50 18 -23 38 -28 99 -17 224 10 117 25 165 57 184
27 16 64 13 85 -6z m-556 -50 c-3 -32 -9 -108 -13 -168 -5 -98 -4 -113 12
-128 33 -33 50 -18 50 45 1 61 18 95 66 129 46 34 75 34 109 0 26 -25 31 -37
28 -67 -4 -48 -43 -81 -82 -68 -32 11 -34 27 -4 34 29 7 49 46 38 74 -12 33
-43 26 -62 -14 -22 -44 -23 -89 -2 -119 14 -20 23 -22 55 -18 43 6 48 1 22
-19 -22 -16 -87 -18 -114 -4 -14 8 -25 7 -41 -5 -31 -21 -80 -19 -111 5 -25
20 -28 20 -56 5 -42 -21 -75 -19 -107 8 -54 46 -28 159 44 193 18 9 44 13 57
10 20 -5 23 -1 29 32 3 20 6 47 6 59 0 48 18 73 51 73 l32 0 -7 -57z m-586
-265 c51 -27 80 -74 80 -133 0 -80 -47 -125 -104 -101 -44 18 -54 61 -27 114
24 46 27 81 9 83 -68 6 -122 -21 -160 -78 -36 -56 -48 -98 -48 -172 1 -114 51
-190 141 -211 64 -16 106 -1 157 54 49 53 59 81 38 105 -9 10 -16 28 -16 40 0
18 5 22 28 19 21 -2 29 -11 38 -37 l11 -34 39 35 c34 30 43 34 72 27 18 -3 35
-9 38 -12 3 -3 -4 -23 -15 -46 -21 -39 -27 -94 -15 -125 7 -19 44 -21 67 -3
17 12 17 14 1 46 -35 70 25 160 113 168 54 5 79 -8 88 -48 8 -32 -28 -79 -80
-103 -20 -10 -33 -21 -30 -27 11 -16 51 -10 86 14 28 19 36 32 44 77 11 54 12
55 47 58 22 2 41 -3 50 -12 9 -8 24 -13 34 -10 11 3 28 -1 38 -9 17 -13 23
-11 54 9 40 28 69 30 99 9 35 -25 37 -60 7 -146 -39 -112 -16 -143 53 -74 28
28 34 40 27 58 -4 12 -8 42 -8 66 0 37 5 48 37 77 45 41 83 44 121 9 52 -49
23 -115 -51 -115 -41 0 -42 10 -3 32 31 18 42 60 18 74 -19 12 -58 -43 -58
-81 0 -46 38 -74 76 -56 30 13 44 14 44 2 0 -16 -83 -43 -115 -37 -27 5 -35 1
-68 -39 -41 -49 -96 -72 -129 -54 -33 18 -39 53 -23 130 20 95 19 119 -3 119
-27 0 -42 -20 -43 -59 -2 -67 -12 -86 -44 -86 -28 0 -30 2 -26 35 12 92 1 119
-33 85 -11 -12 -16 -35 -16 -80 0 -85 -5 -95 -46 -95 l-34 0 0 59 0 58 -35
-33 c-40 -37 -87 -50 -128 -35 -23 9 -33 7 -63 -14 -52 -35 -106 -34 -134 3
-19 22 -21 36 -17 80 5 50 5 52 -19 52 -18 0 -27 -9 -38 -34 -19 -46 -91 -123
-136 -145 -74 -38 -176 -34 -260 9 -47 25 -106 87 -125 133 -21 50 -21 154 0
216 50 151 267 254 395 189z m448 -171 c2 -32 -1 -57 -7 -57 -16 0 -73 80 -68
94 5 14 40 25 62 21 6 -1 11 -27 13 -58z"/>
<path d="M2430 1791 c-37 -37 -42 -82 -7 -74 35 9 57 34 57 64 0 41 -16 44
-50 10z"/>
<path d="M2331 1491 c-10 -18 -32 -212 -26 -219 5 -6 57 87 71 126 7 21 13 48
14 63 0 45 -40 66 -59 30z"/>
<path d="M1690 1308 c-23 -39 -27 -110 -6 -128 8 -6 25 -10 38 -8 22 3 23 7
23 83 0 68 -3 80 -17 83 -11 2 -25 -9 -38 -30z"/>
<path d="M1682 887 c-23 -24 -41 -97 -24 -97 22 0 72 52 72 75 0 37 -23 49
-48 22z"/>
</g>
</svg>
